<?xml version="1.0" encoding="UTF-8" standalone="no"?>
<svg
   xmlns:dc="http://purl.org/dc/elements/1.1/"
   xmlns:cc="http://creativecommons.org/ns#"
   xmlns:rdf="http://www.w3.org/1999/02/22-rdf-syntax-ns#"
   xmlns:svg="http://www.w3.org/2000/svg"
   xmlns="http://www.w3.org/2000/svg"
   viewBox="0 0 77.107217 110.61069"
   height="110.61069"
   width="77.107216"
   version="1.1"
   id="svg2">
  <metadata
     id="metadata8">
    <rdf:RDF>
      <cc:Work
         rdf:about="">
        <dc:format>image/svg+xml</dc:format>
        <dc:type
           rdf:resource="http://purl.org/dc/dcmitype/StillImage" />
        <dc:title></dc:title>
      </cc:Work>
    </rdf:RDF>
  </metadata>
  <defs
     id="defs6" />
  <path
     id="path4174"
     d="m 0.02321725,110.31045 c 0.15675,-0.14983 4.33500005,-1.98586 9.28500005,-4.08005 4.9499997,-2.09418 9.3161457,-4.09783 9.7025457,-4.45256 0.3864,-0.35473 0.8589,-0.91495 1.05,-1.24495 0.235131,-0.40604 0.395946,-3.800404 0.497454,-10.500004 0.142815,-9.425802 0.181071,-9.957477 0.798711,-11.1 0.930855,-1.721913 2.2878,-2.875314 5.276289,-4.484835 l 2.625,-1.413756 0,-4.659858 c 0,-6.342705 0.226176,-5.990307 -6.998517,-10.90419 l -5.648517,-3.841845 -1.349268,0.951054 c -1.186974,0.836655 -1.626186,0.961818 -3.651483,1.040577 -2.1085527,0.08199 -2.4343767,0.01236 -3.8733537,-0.827673 -2.22078,-1.296447 -3.37218,-3.339252 -3.376047,-5.989758 -0.005,-3.423708 1.794651,-5.856675 5.033241,-6.804522 3.2935857,-0.963945 6.6962337,0.555633 8.2815057,3.698409 0.559737,1.109667 0.728433,3.29802 0.388557,5.040378 l -0.234858,1.203978 5.485116,3.746022 c 3.016815,2.06031 5.58828,3.791019 5.71437,3.846018 0.12609,0.055 0.229254,-1.846131 0.229254,-4.224735 l 0,-4.32474 -1.101483,-0.725262 c -1.82133,-1.199241 -2.348517,-2.158263 -2.348517,-4.272261 0,-2.226174 0.742095,-3.480678 2.628165,-4.442877 2.416437,-1.232775 5.693073,-0.0989 6.703668,2.319786 1.019436,2.439858 0.222204,4.907145 -2.066469,6.395352 l -1.115364,0.725262 0,10.317375 0,10.317372 2.475,-1.354851 2.475,-1.354848 0.07802,-13.854219 0.07802,-13.854219 -0.718518,-1.569447 c -0.659175,-1.439826 -1.131033,-1.8681 -5.713209,-5.185494 -4.88607,-3.537405 -5.012412,-3.606798 -5.809506,-3.190965 -1.059894,0.55293 -3.465216,0.547398 -4.543977,-0.01044 -2.082027,-1.076658 -3.362514,-3.837351 -2.741412,-5.910402 1.29642,-4.327068 6.79347,-5.229186 9.325728,-1.530438 0.613524,0.896148 0.744846,1.447794 0.744846,3.128919 l 0,2.040957 4.2,3.029268 c 2.31,1.666098 4.43625,3.241815 4.725,3.501591 0.498051,0.448077 0.525,0.194778 0.525,-4.934673 l 0,-5.406996 -1.17975,-0.158238 c -1.880883,-0.252279 -4.391916,-1.565421 -6.121599,-3.201285 -5.420262,-5.126256 -5.420262,-13.2127024 0,-18.3389599 4.970982,-4.7013455 12.607612,-4.6050845 17.438762,0.2198187 0.96462,0.9633738 1.96507,2.3826438 2.55,3.6175128 0.9028,1.905933 0.96259,2.238078 0.96259,5.3477074 0,3.229128 -0.0295,3.37515 -1.12977,5.601486 -1.73491,3.510348 -5.12011,6.158061 -8.58085,6.711456 l -1.239383,0.198174 0,21.117753 0,21.117756 1.159943,-0.591759 c 0.63796,-0.325467 1.58781,-0.951792 2.11077,-1.391832 1.88318,-1.584588 1.82947,-1.080852 1.82739,-17.138706 l -0.002,-14.639898 -0.87236,-0.496275 c -1.2542,-0.713493 -1.92384,-1.898256 -1.92384,-3.403725 0,-1.521576 0.64408,-2.641755 1.99129,-3.4632 1.22272,-0.745536 2.79469,-0.745536 4.01741,0 1.35988,0.829173 1.9413,1.866396 1.9413,3.4632 0,1.580541 -0.60694,2.682999 -1.87385,3.403725 l -0.87236,0.496275 -0.002,8.009022 -0.002,8.009019 3.84388,-3.059019 c 2.11385,-1.682463 4.47692,-3.531522 5.25099,-4.109022 1.09149,-0.814314 1.36728,-1.184679 1.22864,-1.65 -0.0983,-0.33 -0.37259,-1.275 -0.60949,-2.1 -0.71737,-2.498304 -0.007,-5.140722 1.92533,-7.160859 3.2121,-3.358212 8.23088,-3.447186 11.47464,-0.203427 3.01861,3.018612 3.16948,7.539183 0.36111,10.82013 -1.51137,1.765701 -3.60145,2.689278 -6.07539,2.684637 -1.91746,-0.0036 -4.1697,-0.713334 -4.6307,-1.459242 -0.11259,-0.182181 -0.40307,-0.331239 -0.6455,-0.331239 -0.42716,0 -7.9396,5.730696 -9.98544,7.617171 -0.5564,0.513057 -1.26218,1.472829 -1.56841,2.132829 -0.52005,1.120839 -0.55721,2.25159 -0.56337,17.141226 l -0.007,15.941229 3.17723,1.739484 c 4.59624,2.516376 5.51838,3.949506 5.52936,8.593425 0.007,3.069057 0.57619,4.86829 1.81339,5.73487 0.3767,0.26385 4.88006,2.27298 10.00747,4.46475 l 9.32257,3.98502 -2.3988,0.0889 -2.39881,0.0889 -7.64635,-3.2359 c -6.35056,-2.68752 -7.8376,-3.43297 -8.77493,-4.39882 -1.43372,-1.47735 -2.03111,-3.450779 -2.03111,-6.709586 0,-2.832078 -0.58789,-4.410834 -2.01821,-5.41986 -0.67313,-0.474861 -3.35027,-1.956984 -4.35679,-2.412018 -0.12375,-0.05595 -0.22204,2.643279 -0.21842,5.998281 0.006,5.469426 0.0693,6.239553 0.61343,7.450003 0.39264,0.87347 1.89772,2.6472 4.26391,5.025 l 3.65707,3.675 -1.50086,0 -1.50085,0 -3.05668,-3.075 c -2.24284,-2.2563 -3.27978,-3.55425 -3.89464,-4.875 -0.82965,-1.78215 -0.83895,-1.86887 -0.93678,-8.74252 l -0.0988,-6.942516 -2.52619,-1.350963 -2.526183,-1.350963 0,7.741752 c 0,9.1606 0.07682,9.52632 3.110953,14.81054 1.09397,1.90526 1.98905,3.53624 1.98905,3.62439 0,0.0882 -0.64588,0.16028 -1.43529,0.16028 l -1.43528,0 -1.83307,-3.17593 -1.833069,-3.17593 -1.728891,3.05347 c -0.950892,1.67941 -1.894689,3.1171 -2.097327,3.19486 -0.202638,0.0778 -0.909156,0.0991 -1.570038,0.0475 l -1.201608,-0.0939 1.913991,-3.3 c 3.342693,-5.76329 3.231921,-5.25324 3.35745,-15.459286 l 0.108966,-8.859282 -2.497917,-1.367466 -2.49792,-1.367466 -0.15,10.676748 -0.15,10.676752 -0.853473,1.65 c -0.513366,0.99247 -2.005491,2.8156 -3.744372,4.575 l -2.890899,2.925 -1.955628,-0.008 -1.955628,-0.008 3.676071,-3.60639 c 2.021838,-1.98351 3.979338,-4.1738 4.35,-4.86732 0.663696,-1.24181 0.675255,-1.45376 0.761259,-13.957531 l 0.08733,-12.696579 -2.037327,1.118964 c -2.586738,1.420713 -3.332364,2.083602 -4.020318,3.574191 -0.499713,1.082736 -0.555123,2.108802 -0.567012,10.5 -0.01191,8.407665 -0.06669,9.417835 -0.570936,10.528125 -0.942864,2.0761 -2.392752,2.96965 -10.221057,6.29918 -7.2627387,3.08901 -7.3678227,3.12272 -9.7349997,3.12272 -1.44315005,0 -2.27988305,-0.10814 -2.10800705,-0.27244 z M 44.858222,75.617619 l 0,-8.865267 -0.975,0.731709 c -0.53625,0.402441 -1.68375,1.086585 -2.55,1.520322 l -1.575005,0.78861 0.0058,6.069948 0.0058,6.069945 2.319205,1.257228 c 1.27557,0.691476 2.42046,1.265226 2.54421,1.275 0.12375,0.0098 0.225,-3.971598 0.22499,-8.847495 z m -7.800005,0.161592 0,-4.503675 -2.475,1.342587 c -2.379306,1.290678 -2.478444,1.386894 -2.564061,2.488446 -0.120318,1.547967 0.846258,2.923194 2.939061,4.181649 0.9075,0.545703 1.75125,0.992745 1.875,0.993426 0.12375,6e-4 0.225,-2.025411 0.225,-4.502433 z M 52.612562,60.177513 c -1.97179,-1.041732 -2.99928,-3.599526 -2.37591,-5.914533 0.40881,-1.518231 2.26701,-3.267633 3.77043,-3.549675 2.34513,-0.43995 4.70652,0.646212 5.73693,2.638794 1.18113,2.284062 0.22562,5.551857 -1.98701,6.79542 -1.43662,0.807426 -3.64851,0.820323 -5.14444,0.02999 z M 15.835761,40.4715 c -0.369849,-0.07132 -1.073466,-0.530691 -1.563594,-1.020819 -2.197437,-2.197434 -1.072941,-5.873097 1.971483,-6.444237 1.289913,-0.241989 2.601183,0.286236 3.570642,1.438371 1.056507,1.25559 1.044768,3.434505 -0.02535,4.706277 -0.631482,0.750474 -2.519943,1.648806 -3.130716,1.489266 -0.0825,-0.02154 -0.452604,-0.09754 -0.822465,-0.168858 z m 34.817071,-1.290708 c -1.16831,-0.470721 -1.68244,-2.312691 -1.00095,-3.586074 0.40433,-0.755496 1.95034,-1.256292 2.83729,-0.919074 0.89463,0.340137 1.66905,1.429149 1.66905,2.347071 0,0.845403 -1.53,2.467938 -2.30193,2.441154 -0.30144,-0.01047 -0.843,-0.137844 -1.20346,-0.283077 z m -26.35825,-0.734271 c -0.405,-0.405 -0.736365,-1.086135 -0.736365,-1.513635 0,-0.845454 1.199949,-2.25 1.922247,-2.25 1.616724,0 2.849808,1.645386 2.305662,3.076599 -0.58113,1.528482 -2.309922,1.868661 -3.491544,0.687036 z m 29.38007,-9.457656 c -1.13466,-0.458451 -1.91643,-1.774626 -1.91643,-3.226437 0,-1.123401 0.16458,-1.504125 1.02,-2.359542 0.86333,-0.863331 1.23123,-1.02 2.39526,-1.02 1.83607,0 3.1502,1.116195 3.38621,2.876175 0.37428,2.791092 -2.24975,4.794582 -4.88504,3.729804 z"
     style="fill:#009688;fill-opacity:1" />
</svg>
